<?xml version="1.0" encoding="UTF-8"?>
<svg width="271px" height="235px" viewBox="0 0 271 235" version="1.1" xmlns="http://www.w3.org/2000/svg" xmlns:xlink="http://www.w3.org/1999/xlink">
    <g id="Page-1" stroke="none" stroke-width="1" fill="none" fill-rule="evenodd">
        <g id="Desktop-HD-Copy-9" transform="translate(-423.000000, -2074.000000)">
            <g id="Group-5" transform="translate(423.000000, 2074.000000)">
                <g id="Group-4">
                    <g id="Group-3" stroke="#0F2E5C" stroke-width="3">
                        <rect id="Rectangle-11" x="1.5" y="1.5" width="268" height="232" rx="10"></rect>
                        <rect id="Rectangle-5" x="84.5" y="12.5" width="174" height="11" rx="5.5"></rect>
                        <rect id="Rectangle-5-Copy" x="11.5" y="12.5" width="26" height="11" rx="5.5"></rect>
                        <rect id="Rectangle-5-Copy-2" x="48.5" y="12.5" width="26" height="11" rx="5.5"></rect>
                        <path d="M1.5,34.5 L268.529849,34.5" id="Line" stroke-linecap="square"></path>
                    </g>
                    <path d="M93.64,127.32 C92.776,126.888 92.104,125.976 92.104,124.92 C92.104,123.912 92.776,123 93.64,122.568 L111.496,114.216 C111.688,114.12 111.976,114.024 112.216,114.024 C113.224,114.024 113.992,114.84 113.992,115.8 C113.992,116.52 113.512,117.096 112.936,117.384 L96.184,124.968 L112.984,132.504 C113.56,132.744 113.992,133.368 113.992,134.088 C113.992,135.048 113.224,135.816 112.264,135.816 C111.976,135.816 111.688,135.768 111.496,135.672 L93.64,127.32 Z M129.784,142.248 C128.824,142.248 128.008,141.432 128.008,140.472 C128.008,140.28 128.056,140.04 128.104,139.896 L138.52,108.936 C138.76,108.264 139.384,107.736 140.2,107.736 C141.16,107.736 141.976,108.552 141.976,109.512 C141.976,109.704 141.928,109.944 141.88,110.088 L131.464,141.048 C131.224,141.72 130.6,142.248 129.784,142.248 Z M158.488,135.672 C158.296,135.768 158.008,135.816 157.72,135.816 C156.76,135.816 155.992,135.048 155.992,134.088 C155.992,133.368 156.424,132.792 157,132.504 L173.752,124.968 L157.048,117.384 C156.472,117.096 155.992,116.52 155.992,115.8 C155.992,114.84 156.76,114.024 157.768,114.024 C158.008,114.024 158.296,114.12 158.488,114.216 L176.344,122.568 C177.208,123 177.88,123.912 177.88,124.92 C177.88,125.976 177.208,126.888 176.344,127.32 L158.488,135.672 Z" id="&lt;-/-&gt;" fill="#0F2E5C"></path>
                </g>
            </g>
        </g>
    </g>
</svg>