<?xml version="1.0" encoding="UTF-8"?>
<svg width="219px" height="198px" viewBox="0 0 219 198" version="1.1" xmlns="http://www.w3.org/2000/svg" xmlns:xlink="http://www.w3.org/1999/xlink">
    <!-- Generator: Sketch 49.2 (51160) - http://www.bohemiancoding.com/sketch -->
    <title>Group 5</title>
    <desc>Created with Sketch.</desc>
    <defs></defs>
    <g id="Page-1" stroke="none" stroke-width="1" fill="none" fill-rule="evenodd">
        <g id="Desktop-HD-Copy-9" transform="translate(-462.000000, -2102.000000)">
            <g id="Group-5" transform="translate(463.000000, 2102.000000)">
                <g id="Group-4">
                    <g id="Group-3" stroke="#0F2E5C" stroke-width="3">
                        <rect id="Rectangle-11" x="1.5" y="1.5" width="215" height="195" rx="10"></rect>
                        <rect id="Rectangle-5" x="68.2675277" y="10.7680851" width="139.383764" height="8.79574468" rx="4.39787234"></rect>
                        <rect id="Rectangle-5-Copy" x="9.54428044" y="10.7680851" width="20.3284133" height="8.79574468" rx="4.39787234"></rect>
                        <rect id="Rectangle-5-Copy-2" x="39.3081181" y="10.7680851" width="20.3284133" height="8.79574468" rx="4.39787234"></rect>
                        <path d="M1.20664207,29.0680851 L216.012941,29.0680851" id="Line" stroke-linecap="square"></path>
                    </g>
                    <path d="M75.3266421,107.273872 C74.6316162,106.909889 74.0910406,106.141481 74.0910406,105.251745 C74.0910406,104.402451 74.6316162,103.634043 75.3266421,103.27006 L89.6905092,96.2330553 C89.8449594,96.1521702 90.0766347,96.0712851 90.2696974,96.0712851 C91.0805609,96.0712851 91.6983616,96.7588085 91.6983616,97.5676596 C91.6983616,98.1742979 91.3122362,98.6596085 90.8488856,98.9022638 L77.373107,105.292187 L90.8874982,111.641668 C91.3508487,111.843881 91.6983616,112.369634 91.6983616,112.976272 C91.6983616,113.785123 91.0805609,114.432204 90.30831,114.432204 C90.0766347,114.432204 89.8449594,114.391762 89.6905092,114.310877 L75.3266421,107.273872 Z M104.401889,119.851506 C103.629638,119.851506 102.973225,119.163983 102.973225,118.355132 C102.973225,118.193362 103.011838,117.991149 103.05045,117.869821 L111.429373,91.7843745 C111.622435,91.2181787 112.124399,90.7733106 112.780812,90.7733106 C113.553063,90.7733106 114.209476,91.460834 114.209476,92.2696851 C114.209476,92.4314553 114.170863,92.6336681 114.132251,92.7549957 L105.753328,118.840443 C105.560266,119.406638 105.058303,119.851506 104.401889,119.851506 Z M127.492192,114.310877 C127.337742,114.391762 127.106066,114.432204 126.874391,114.432204 C126.10214,114.432204 125.484339,113.785123 125.484339,112.976272 C125.484339,112.369634 125.831852,111.884323 126.295203,111.641668 L139.770982,105.292187 L126.333815,98.9022638 C125.870465,98.6596085 125.484339,98.1742979 125.484339,97.5676596 C125.484339,96.7588085 126.10214,96.0712851 126.913004,96.0712851 C127.106066,96.0712851 127.337742,96.1521702 127.492192,96.2330553 L141.856059,103.27006 C142.551085,103.634043 143.091661,104.402451 143.091661,105.251745 C143.091661,106.141481 142.551085,106.909889 141.856059,107.273872 L127.492192,114.310877 Z" id="&lt;-/-&gt;" fill="#0F2E5C"></path>
                </g>
            </g>
        </g>
    </g>
</svg>